<svg version="1.1"
     baseProfile="full"

     viewBox="0 0 200 200"
     xmlns="http://www.w3.org/2000/svg">

    <defs>
        <!-- Created with Inkscape (http://www.inkscape.org/) -->
        <svg
                xmlns="http://www.w3.org/2000/svg"
                width="80"
                height="80"
                viewBox="40 90 130 110"
                version="1.1"
                id="svg903">
            <defs
                    id="defs897">
                <radialGradient
                        fx="0"
                        fy="0"
                        cx="0"
                        cy="0"
                        r="1"
                        gradientUnits="userSpaceOnUse"
                        gradientTransform="matrix(2.3466156,0,0,2.3466156,128.09223,197.86853)"
                        spreadMethod="pad"
                        id="radialGradient366">
                    <stop
                            style="stop-opacity:1;stop-color:#fff33b"
                            offset="0"
                            id="stop356" />
                    <stop
                            style="stop-opacity:1;stop-color:#fdc70c"
                            offset="0.2005635"
                            id="stop358" />
                    <stop
                            style="stop-opacity:1;stop-color:#fdc70c"
                            offset="0.423191"
                            id="stop360" />
                    <stop
                            style="stop-opacity:1;stop-color:#f3903f"
                            offset="0.759448"
                            id="stop362" />
                    <stop
                            style="stop-opacity:1;stop-color:#ed683c"
                            offset="1"
                            id="stop364" />
                </radialGradient>
                <radialGradient
                        fx="0"
                        fy="0"
                        cx="0"
                        cy="0"
                        r="1"
                        gradientUnits="userSpaceOnUse"
                        gradientTransform="matrix(2.3466243,0,0,2.3466243,120.94676,197.71942)"
                        spreadMethod="pad"
                        id="radialGradient324">
                    <stop
                            style="stop-opacity:1;stop-color:#fff33b"
                            offset="0"
                            id="stop314" />
                    <stop
                            style="stop-opacity:1;stop-color:#fdc70c"
                            offset="0.2005635"
                            id="stop316" />
                    <stop
                            style="stop-opacity:1;stop-color:#fdc70c"
                            offset="0.423191"
                            id="stop318" />
                    <stop
                            style="stop-opacity:1;stop-color:#f3903f"
                            offset="0.759756"
                            id="stop320" />
                    <stop
                            style="stop-opacity:1;stop-color:#ed683c"
                            offset="1"
                            id="stop322" />
                </radialGradient>
            </defs>
            <metadata
                    id="metadata900">
            </metadata>
            <g
                    id="layer1">
                <g
                        id="g268"
                        transform="matrix(1.187333,0,0,-1.187333,125.47674,154.06919)">
                    <path
                            d="m 0,0 c -0.033,-0.853 -0.499,-1.812 -1.396,-2.878 -0.831,-0.959 -1.213,-2.007 -1.146,-3.144 1.296,-0.249 2.21,0.498 2.742,2.238 C 0.73,-2.114 0.665,-0.853 0,0 m -2.542,-8.74 c -0.167,0.035 -0.731,0.213 -1.695,0.533 -0.466,0.142 -0.93,-0.036 -1.395,-0.533 -0.068,-0.533 0.082,-0.978 0.448,-1.333 0.332,-0.355 0.73,-0.55 1.197,-0.586 0.498,-0.035 0.88,0.106 1.146,0.427 0.332,0.355 0.431,0.852 0.299,1.492 m -3.738,-5.33 c -2.261,0.249 -4.853,-0.942 -7.776,-3.571 -3.39,-3.02 -6.015,-4.743 -7.876,-5.17 7.078,0.036 12.295,2.95 15.652,8.741 m -10.667,37.521 c -0.698,-0.036 -1.828,-0.196 -3.39,-0.48 -1.562,-0.284 -2.725,-0.444 -3.489,-0.48 -2.625,-0.178 -4.503,0.586 -5.632,2.292 3.92,1.67 12.478,3.021 25.67,4.051 19.506,1.527 31.003,2.202 34.493,2.025 0.066,-0.142 0.049,-0.853 -0.05,-2.132 -0.067,-0.888 0.166,-1.297 0.698,-1.226 C 27.332,25.902 21.533,24.943 13.957,24.623 11.863,24.552 8.523,24.481 3.938,24.41 -0.548,24.339 -3.955,24.25 -6.28,24.144 -7.609,24.072 -11.165,23.842 -16.947,23.451 m 47.053,14.763 c -33.263,-4.832 -53.118,-7.515 -59.564,-8.048 0.166,2.31 1.661,3.819 4.486,4.53 0.897,0.213 2.093,0.391 3.589,0.533 1.761,0.142 2.823,0.249 3.19,0.32 27.148,4.654 43.248,7.106 48.299,7.355 z m -63.353,-2.665 c 1.462,-0.569 2.343,-3.18 2.642,-7.834 0.167,-1.955 0.083,-3.625 -0.249,-5.011 -0.366,-1.527 -0.947,-2.397 -1.745,-2.611 -0.997,2.061 -1.628,4.601 -1.894,7.622 -0.299,3.481 0.117,6.093 1.246,7.834 m -3.738,-16.788 c -1.894,0.603 -2.991,3.002 -3.29,7.195 -0.267,3.943 0.199,6.91 1.396,8.9 0.365,0.071 0.698,-0.018 0.997,-0.266 0.365,-0.249 0.664,-0.391 0.897,-0.427 -0.432,-1.883 -0.283,-4.814 0.448,-8.794 0.631,-3.304 0.482,-5.507 -0.448,-6.608 m -5.035,15.402 c -0.465,-1.101 -0.182,-5.596 0.848,-13.483 0.399,-3.127 0.465,-5.526 0.199,-7.196 -0.366,-2.203 -1.345,-3.571 -2.941,-4.103 -0.665,10.445 -1.279,18.049 -1.844,22.81 -0.033,0 0.581,0.889 1.844,2.665 0.366,0.071 0.715,-0.018 1.047,-0.266 0.332,-0.249 0.615,-0.391 0.847,-0.427 m -3.738,-12.737 c -0.665,0.106 -2.675,0.089 -6.031,-0.054 -2.525,-0.106 -4.287,0.143 -5.284,0.746 0.399,1.457 1.877,2.221 4.437,2.292 3.755,0.142 5.831,0.267 6.23,0.373 -0.199,-0.675 -0.133,-1.262 0.199,-1.759 0.366,-0.568 0.516,-1.101 0.449,-1.598 m -1.296,8.74 c 0.366,-2.203 -0.881,-3.5 -3.738,-3.891 -2.061,-0.249 -4.155,-0.071 -6.281,0.534 0.466,1.385 1.877,2.238 4.237,2.557 3.689,0.462 5.615,0.729 5.782,0.8 M -65.845,2.665 c 23.825,1.208 47.652,1.208 71.478,0 -0.1,-7.177 -1.962,-13.218 -5.583,-18.121 -2.659,-3.624 -6.862,-7.194 -12.611,-10.712 -0.267,-0.498 -0.598,-1.812 -0.997,-3.944 -0.299,-1.742 -0.797,-2.878 -1.495,-3.411 h -28.861 c -1.662,1.741 -2.276,3.979 -1.844,6.715 -6.048,3.234 -10.617,6.84 -13.707,10.82 -3.856,5.045 -5.982,11.262 -6.38,18.653"
                            style="fill:#ffffff;fill-opacity:1;fill-rule:nonzero;stroke:none"
                            id="path270"/>
                </g><!--231f20-->
            </g>
        </svg>

    </defs>
    <style>
        @import url("https://fonts.googleapis.com/css2?family=Mate");
        text {
            font-family: 'Mate', serif;
            fill: white;
        }
        circle {
            stroke: white;
        }
        .small {
            text-anchor: middle;
        }
        .heavy {
            text-anchor: middle;
        }
    </style>
    <use x="68.5" y="23" href="#svg903" />

    <circle cx="100" cy="100" r="90"
            stroke="black" fill="none" stroke-width="7px"/>
    <text x="100" y="135" font-size="40" class="heavy">UFOOD</text>
    <text x="100" y="155" font-size="12" class="small">SHARE THE TASTE</text>
</svg>